<svg width="64" height="64" viewBox="0 0 64 64" fill="none" xmlns="http://www.w3.org/2000/svg">
  <rect width="64" height="64" fill="white" />
  <path
    d="M64 21.5C63.9623 21.5 63.9007 21.4989 63.8167 21.4975C62.6935 21.4787 57.5529 21.3926 51.6129 22.8007C45.169 24.3282 38.3605 27.4799 34.5725 33.7934C29.5714 42.1289 20.8799 45.8523 13.7711 47.5375C10.1733 48.3903 6.85093 48.7539 4.36937 48.9059C3.12517 48.9822 2.08487 49.0057 1.3184 49.0099C0.804991 49.0128 0.104477 49.0034 0 49.0007V64H64V21.5Z"
    fill="#F3A217" />
  <path
    d="M64 0H0V43C0.0375308 43 0.0986876 43.001 0.182141 43.0024L0.183305 43.0024C1.30651 43.0212 6.44715 43.1074 12.3871 41.6993C18.831 40.1717 25.6395 37.0201 29.4275 30.7065C34.4286 22.371 43.12 18.6477 50.2289 16.9625C53.8267 16.1096 57.1491 15.746 59.6306 15.594C60.8748 15.5178 61.9151 15.4943 62.6816 15.49C63.195 15.4871 63.8955 15.4966 64 15.4993V0Z"
    fill="#FED600" />
</svg>