<svg id="logosandtypes_com" xmlns="http://www.w3.org/2000/svg" viewBox="0 0 150 150.2"><style>.st1{fill:#003b79}</style><g id="Layer_3_2_"><g id="Layer_2_1_"><path id="Layer_3" d="M0 .2h150v150H0V.2z" fill="none"/></g></g><g id="navionics"><path class="st1" d="M69.7 63l11.5 13.7c2.4 2.9 6.3 2.9 8.7 0l34.6-41.2c-3.6-4.7-7.9-8.9-12.7-12.4l-21.9 26c-2.4 2.9-6.3 2.9-8.7 0L69.7 35.4c-2.4-2.9-6.3-2.9-8.7 0L14.4 91c1.8 6.3 4.6 12.3 8.3 17.8L61 63c2.5-2.8 6.3-2.8 8.7 0z"/><path class="st1" d="M69.7 26.8l11.5 13.7c2.4 2.9 6.3 2.9 8.7 0L107.1 20C77.4 2.1 38.9 11.7 21 41.4c-5.9 9.8-9 21-9 32.4 0 3.5.3 7 .9 10.5L61 26.8c2.5-2.8 6.3-2.8 8.7 0zM69.7 99.2l11.5 13.7c2.4 2.9 6.3 2.9 8.7 0l45.7-54.5c-1.6-6.5-4.3-12.6-7.9-18.3L89.9 85.3c-2.4 2.9-6.3 2.9-8.7 0L69.7 71.6c-2.4-2.9-6.3-2.9-8.7 0l-35 41.7c3.8 4.6 8.1 8.7 13 12.1l22-26.2c2.5-2.8 6.3-2.8 8.7 0z"/><path class="st1" d="M89.9 121.5c-2.4 2.9-6.3 2.9-8.7 0l-11.5-13.7c-2.4-2.9-6.3-2.9-8.7 0l-17.3 20.6c30.2 17.1 68.5 6.5 85.6-23.7 5.3-9.4 8.2-20.1 8.2-30.9 0-2.8-.2-5.6-.6-8.4l-47 56.1z"/></g></svg>