<svg xmlns="http://www.w3.org/2000/svg" width="64" height="65" fill="none">
  <g clip-path="url(#a)">
    <path fill="#4C8C2B"
      d="M12.801 26.745c2.623-3.124 5.25-5.477 8.035-7.19 2.47-1.52 4.751-2.35 6.764-3.082 1.624-.59 3.157-1.15 4.642-2.014 1.636-.953 3.061-2.188 4.485-3.885a9.367 9.367 0 0 0 1.642-9.17C27.33-.847 15.439 2.864 7.689 12.1-2.737 24.527-2.011 42.6 8.8 54.155a26.391 26.391 0 0 1-2.06-8.184c-.614-7.008 1.54-13.836 6.061-19.225Zm33.287-3.139c-2.805 3.343-4.854 4.636-6.662 5.777-1.639 1.034-3.187 2.011-5.482 4.746A21.127 21.127 0 0 0 29.05 49.65a21.12 21.12 0 0 0 7.332 14.279A31.615 31.615 0 0 0 56.31 52.897c11.266-13.426 9.514-33.443-3.911-44.708-.715-.6-1.457-1.17-2.221-1.705.21.909.357 1.832.438 2.761a19.544 19.544 0 0 1-4.528 14.362Z" />
    <path fill="#FFA300"
      d="M32 32.498c5.1-6.077 7.044-4.445 12.144-10.522C48.57 16.7 49.274 9.544 46.54 3.692a32.117 32.117 0 0 0-5.475-2.166 11.884 11.884 0 0 1-2.393 10.68c-7.65 9.115-13.726 4.016-23.926 16.17-8.07 9.617-7.233 23.742 1.63 32.353a32.093 32.093 0 0 0 17.128 3.998C24.759 56.105 23.969 42.069 32 32.498Z" />
  </g>
  <defs>
    <clipPath id="a">
      <path fill="#fff" d="M0 64.763h64v-64H0z" />
    </clipPath>
  </defs>
</svg>